<?xml version="1.0" encoding="UTF-8" standalone="no"?>
<!DOCTYPE svg PUBLIC "-//W3C//DTD SVG 1.1//EN"
 "http://www.w3.org/Graphics/SVG/1.1/DTD/svg11.dtd">
<!-- Generated by graphviz version 2.42.4 (0)
 -->
<!-- Title: outputs_tree Pages: 1 -->
<svg width="455pt" height="248pt"
 viewBox="0.00 0.00 454.50 248.00" xmlns="http://www.w3.org/2000/svg" xmlns:xlink="http://www.w3.org/1999/xlink">
<g id="graph0" class="graph" transform="scale(1 1) rotate(0) translate(4 244)">
<title>outputs_tree</title>
<!-- ROOT -->
<g id="node1" class="node">
<title>ROOT</title>
<path fill="white" stroke="#555555" d="M265,-240C265,-240 206,-240 206,-240 200,-240 194,-234 194,-228 194,-228 194,-216 194,-216 194,-210 200,-204 206,-204 206,-204 265,-204 265,-204 271,-204 277,-210 277,-216 277,-216 277,-228 277,-228 277,-234 271,-240 265,-240"/>
<text text-anchor="middle" x="235.5" y="-218.3" font-family="monospace" font-size="14.00">ABCDEFGH</text>
</g>
<!-- ABCD -->
<g id="node2" class="node">
<title>ABCD</title>
<path fill="white" stroke="#555555" d="M212.5,-172C212.5,-172 182.5,-172 182.5,-172 176.5,-172 170.5,-166 170.5,-160 170.5,-160 170.5,-148 170.5,-148 170.5,-142 176.5,-136 182.5,-136 182.5,-136 212.5,-136 212.5,-136 218.5,-136 224.5,-142 224.5,-148 224.5,-148 224.5,-160 224.5,-160 224.5,-166 218.5,-172 212.5,-172"/>
<text text-anchor="middle" x="197.5" y="-150.3" font-family="monospace" font-size="14.00">ABCD</text>
</g>
<!-- ROOT&#45;&gt;ABCD -->
<g id="edge1" class="edge">
<title>ROOT&#45;&gt;ABCD</title>
<path fill="none" stroke="#555555" d="M225.52,-203.66C219.97,-194.03 213.1,-182.1 207.55,-172.45"/>
</g>
<!-- EFGH -->
<g id="node3" class="node">
<title>EFGH</title>
<path fill="white" stroke="#555555" d="M288.5,-172C288.5,-172 258.5,-172 258.5,-172 252.5,-172 246.5,-166 246.5,-160 246.5,-160 246.5,-148 246.5,-148 246.5,-142 252.5,-136 258.5,-136 258.5,-136 288.5,-136 288.5,-136 294.5,-136 300.5,-142 300.5,-148 300.5,-148 300.5,-160 300.5,-160 300.5,-166 294.5,-172 288.5,-172"/>
<text text-anchor="middle" x="273.5" y="-150.3" font-family="monospace" font-size="14.00">EFGH</text>
</g>
<!-- ROOT&#45;&gt;EFGH -->
<g id="edge2" class="edge">
<title>ROOT&#45;&gt;EFGH</title>
<path fill="none" stroke="#555555" d="M245.48,-203.66C251.03,-194.03 257.9,-182.1 263.45,-172.45"/>
</g>
<!-- CD -->
<g id="node4" class="node">
<title>CD</title>
<path fill="white" stroke="#555555" d="M212.5,-104C212.5,-104 182.5,-104 182.5,-104 176.5,-104 170.5,-98 170.5,-92 170.5,-92 170.5,-80 170.5,-80 170.5,-74 176.5,-68 182.5,-68 182.5,-68 212.5,-68 212.5,-68 218.5,-68 224.5,-74 224.5,-80 224.5,-80 224.5,-92 224.5,-92 224.5,-98 218.5,-104 212.5,-104"/>
<text text-anchor="middle" x="197.5" y="-82.3" font-family="monospace" font-size="14.00">CD</text>
</g>
<!-- ABCD&#45;&gt;CD -->
<g id="edge4" class="edge">
<title>ABCD&#45;&gt;CD</title>
<path fill="none" stroke="#555555" d="M197.5,-135.66C197.5,-126.03 197.5,-114.1 197.5,-104.45"/>
</g>
<!-- AB -->
<g id="node6" class="node">
<title>AB</title>
<path fill="#cfe8ff" stroke="#555555" d="M137,-104C137,-104 12,-104 12,-104 6,-104 0,-98 0,-92 0,-92 0,-80 0,-80 0,-74 6,-68 12,-68 12,-68 137,-68 137,-68 143,-68 149,-74 149,-80 149,-80 149,-92 149,-92 149,-98 143,-104 137,-104"/>
<text text-anchor="middle" x="74.5" y="-82.3" font-family="monospace" font-size="14.00">AB = frontier[2]</text>
</g>
<!-- ABCD&#45;&gt;AB -->
<g id="edge3" class="edge">
<title>ABCD&#45;&gt;AB</title>
<path fill="none" stroke="#555555" d="M170.2,-138.35C151.38,-128.25 126.28,-114.78 106.51,-104.18"/>
</g>
<!-- EF -->
<g id="node5" class="node">
<title>EF</title>
<path fill="white" stroke="#555555" d="M288.5,-104C288.5,-104 258.5,-104 258.5,-104 252.5,-104 246.5,-98 246.5,-92 246.5,-92 246.5,-80 246.5,-80 246.5,-74 252.5,-68 258.5,-68 258.5,-68 288.5,-68 288.5,-68 294.5,-68 300.5,-74 300.5,-80 300.5,-80 300.5,-92 300.5,-92 300.5,-98 294.5,-104 288.5,-104"/>
<text text-anchor="middle" x="273.5" y="-82.3" font-family="monospace" font-size="14.00">EF</text>
</g>
<!-- EFGH&#45;&gt;EF -->
<g id="edge5" class="edge">
<title>EFGH&#45;&gt;EF</title>
<path fill="none" stroke="#555555" d="M273.5,-135.66C273.5,-126.03 273.5,-114.1 273.5,-104.45"/>
</g>
<!-- GH -->
<g id="node7" class="node">
<title>GH</title>
<path fill="#cccccc" stroke="#555555" d="M434.5,-104C434.5,-104 334.5,-104 334.5,-104 328.5,-104 322.5,-98 322.5,-92 322.5,-92 322.5,-80 322.5,-80 322.5,-74 328.5,-68 334.5,-68 334.5,-68 434.5,-68 434.5,-68 440.5,-68 446.5,-74 446.5,-80 446.5,-80 446.5,-92 446.5,-92 446.5,-98 440.5,-104 434.5,-104"/>
<text text-anchor="middle" x="384.5" y="-82.3" font-family="monospace" font-size="14.00">GH (pristine)</text>
</g>
<!-- EFGH&#45;&gt;GH -->
<g id="edge6" class="edge">
<title>EFGH&#45;&gt;GH</title>
<path fill="none" stroke="#555555" d="M300.65,-136.85C317.34,-126.93 338.7,-114.23 355.69,-104.13"/>
</g>
<!-- C -->
<g id="node8" class="node">
<title>C</title>
<path fill="#d8f5d0" stroke="#555555" d="M136.5,-36C136.5,-36 106.5,-36 106.5,-36 100.5,-36 94.5,-30 94.5,-24 94.5,-24 94.5,-12 94.5,-12 94.5,-6 100.5,0 106.5,0 106.5,0 136.5,0 136.5,0 142.5,0 148.5,-6 148.5,-12 148.5,-12 148.5,-24 148.5,-24 148.5,-30 142.5,-36 136.5,-36"/>
<text text-anchor="middle" x="121.5" y="-14.3" font-family="monospace" font-size="14.00">C</text>
</g>
<!-- CD&#45;&gt;C -->
<g id="edge7" class="edge">
<title>CD&#45;&gt;C</title>
<path fill="none" stroke="#555555" d="M177.53,-67.66C166.36,-57.96 152.48,-45.91 141.33,-36.22"/>
</g>
<!-- D -->
<g id="node9" class="node">
<title>D</title>
<path fill="#d8f5d0" stroke="#555555" d="M212.5,-36C212.5,-36 182.5,-36 182.5,-36 176.5,-36 170.5,-30 170.5,-24 170.5,-24 170.5,-12 170.5,-12 170.5,-6 176.5,0 182.5,0 182.5,0 212.5,0 212.5,0 218.5,0 224.5,-6 224.5,-12 224.5,-12 224.5,-24 224.5,-24 224.5,-30 218.5,-36 212.5,-36"/>
<text text-anchor="middle" x="197.5" y="-14.3" font-family="monospace" font-size="14.00">D</text>
</g>
<!-- CD&#45;&gt;D -->
<g id="edge8" class="edge">
<title>CD&#45;&gt;D</title>
<path fill="none" stroke="#555555" d="M197.5,-67.66C197.5,-58.03 197.5,-46.1 197.5,-36.45"/>
</g>
<!-- E -->
<g id="node10" class="node">
<title>E</title>
<path fill="#d8f5d0" stroke="#555555" d="M288.5,-36C288.5,-36 258.5,-36 258.5,-36 252.5,-36 246.5,-30 246.5,-24 246.5,-24 246.5,-12 246.5,-12 246.5,-6 252.5,0 258.5,0 258.5,0 288.5,0 288.5,0 294.5,0 300.5,-6 300.5,-12 300.5,-12 300.5,-24 300.5,-24 300.5,-30 294.5,-36 288.5,-36"/>
<text text-anchor="middle" x="273.5" y="-14.3" font-family="monospace" font-size="14.00">E</text>
</g>
<!-- EF&#45;&gt;E -->
<g id="edge9" class="edge">
<title>EF&#45;&gt;E</title>
<path fill="none" stroke="#555555" d="M273.5,-67.66C273.5,-58.03 273.5,-46.1 273.5,-36.45"/>
</g>
<!-- F -->
<g id="node11" class="node">
<title>F</title>
<path fill="#d8f5d0" stroke="#555555" d="M364.5,-36C364.5,-36 334.5,-36 334.5,-36 328.5,-36 322.5,-30 322.5,-24 322.5,-24 322.5,-12 322.5,-12 322.5,-6 328.5,0 334.5,0 334.5,0 364.5,0 364.5,0 370.5,0 376.5,-6 376.5,-12 376.5,-12 376.5,-24 376.5,-24 376.5,-30 370.5,-36 364.5,-36"/>
<text text-anchor="middle" x="349.5" y="-14.3" font-family="monospace" font-size="14.00">F</text>
</g>
<!-- EF&#45;&gt;F -->
<g id="edge10" class="edge">
<title>EF&#45;&gt;F</title>
<path fill="none" stroke="#555555" d="M293.47,-67.66C304.64,-57.96 318.52,-45.91 329.67,-36.22"/>
</g>
</g>
</svg>
