<svg xmlns="http://www.w3.org/2000/svg" width="670.6" height="1008.59" font-family="-apple-system,BlinkMacSystemFont,'Segoe UI',Helvetica,Arial,sans-serif">
<text x="207" y="22" font-size="14" font-weight="bold" text-anchor="middle" fill="#e6edf3">State hash-tree</text>
<text x="541.3" y="22" font-size="14" font-weight="bold" text-anchor="middle" fill="#e6edf3">Address space</text>
<g transform="translate(34,34)">
<line x1="332" y1="62" x2="364" y2="44" stroke="#b9c2cf"/>
<line x1="332" y1="62" x2="364" y2="80" stroke="#b9c2cf"/>
<line x1="332" y1="126.05" x2="364" y2="113.3" stroke="#b9c2cf"/>
<line x1="332" y1="126.05" x2="364" y2="138.8" stroke="#b9c2cf"/>
<line x1="282" y1="94.0251" x2="332" y2="62" stroke="#b9c2cf"/>
<line x1="282" y1="94.0251" x2="332" y2="126.05" stroke="#b9c2cf"/>
<line x1="232" y1="128.552" x2="282" y2="94.0251" stroke="#b9c2cf"/>
<line x1="232" y1="128.552" x2="364" y2="163.078" stroke="#b9c2cf"/>
<line x1="332" y1="211.805" x2="364" y2="192.457" stroke="#b9c2cf"/>
<line x1="332" y1="211.805" x2="364" y2="231.154" stroke="#b9c2cf"/>
<line x1="282" y1="244.878" x2="332" y2="211.805" stroke="#b9c2cf"/>
<line x1="282" y1="244.878" x2="364" y2="277.951" stroke="#b9c2cf"/>
<line x1="182" y1="186.715" x2="232" y2="128.552" stroke="#b9c2cf"/>
<line x1="182" y1="186.715" x2="282" y2="244.878" stroke="#b9c2cf"/>
<line x1="132" y1="252.172" x2="182" y2="186.715" stroke="#b9c2cf"/>
<line x1="132" y1="252.172" x2="364" y2="317.63" stroke="#b9c2cf"/>
<line x1="332" y1="412.904" x2="364" y2="388.791" stroke="#b9c2cf"/>
<line x1="332" y1="412.904" x2="364" y2="437.017" stroke="#b9c2cf"/>
<line x1="332" y1="501.342" x2="364" y2="485.244" stroke="#b9c2cf"/>
<line x1="332" y1="501.342" x2="364" y2="517.441" stroke="#b9c2cf"/>
<line x1="282" y1="457.123" x2="332" y2="412.904" stroke="#b9c2cf"/>
<line x1="282" y1="457.123" x2="332" y2="501.342" stroke="#b9c2cf"/>
<line x1="232" y1="497.116" x2="282" y2="457.123" stroke="#b9c2cf"/>
<line x1="232" y1="497.116" x2="364" y2="537.108" stroke="#b9c2cf"/>
<line x1="332" y1="575.585" x2="364" y2="558.883" stroke="#b9c2cf"/>
<line x1="332" y1="575.585" x2="364" y2="592.287" stroke="#b9c2cf"/>
<line x1="182" y1="536.351" x2="232" y2="497.116" stroke="#b9c2cf"/>
<line x1="182" y1="536.351" x2="332" y2="575.585" stroke="#b9c2cf"/>
<line x1="132" y1="443" x2="364" y2="349.649" stroke="#b9c2cf"/>
<line x1="132" y1="443" x2="182" y2="536.351" stroke="#b9c2cf"/>
<line x1="82" y1="347.586" x2="132" y2="252.172" stroke="#b9c2cf"/>
<line x1="82" y1="347.586" x2="132" y2="443" stroke="#b9c2cf"/>
<line x1="332" y1="670.587" x2="364" y2="642.687" stroke="#b9c2cf"/>
<line x1="332" y1="670.587" x2="364" y2="698.487" stroke="#b9c2cf"/>
<line x1="282" y1="712.887" x2="332" y2="670.587" stroke="#b9c2cf"/>
<line x1="282" y1="712.887" x2="364" y2="755.187" stroke="#b9c2cf"/>
<line x1="332" y1="828.871" x2="364" y2="809.187" stroke="#b9c2cf"/>
<line x1="332" y1="828.871" x2="364" y2="848.554" stroke="#b9c2cf"/>
<line x1="232" y1="770.879" x2="282" y2="712.887" stroke="#b9c2cf"/>
<line x1="232" y1="770.879" x2="332" y2="828.871" stroke="#b9c2cf"/>
<line x1="182" y1="824.55" x2="232" y2="770.879" stroke="#b9c2cf"/>
<line x1="182" y1="824.55" x2="364" y2="878.22" stroke="#b9c2cf"/>
<line x1="32" y1="586.068" x2="82" y2="347.586" stroke="#b9c2cf"/>
<line x1="32" y1="586.068" x2="182" y2="824.55" stroke="#b9c2cf"/>
<line x1="-18" y1="756.111" x2="32" y2="586.068" stroke="#b9c2cf"/>
<line x1="-18" y1="756.111" x2="364" y2="926.154" stroke="#b9c2cf"/>
<rect x="390" y="26" width="22" height="36" fill="#2f6fb3" stroke="#b9c2cf"/>
<text x="420" y="30" font-size="10" font-family="ui-monospace,SFMono-Regular,Menlo,Consolas,monospace" fill="#9aa4b2">0x0000000000000</text>
<text x="420" y="48" font-size="13" fill="#5b9bf0">shadow state <tspan fill="#9aa4b2" font-size="10">(2^15 bytes)</tspan></text>
<rect x="390" y="62" width="22" height="36" fill="#ffffff" stroke="#b9c2cf"/>
<text x="420" y="66" font-size="10" font-family="ui-monospace,SFMono-Regular,Menlo,Consolas,monospace" fill="#9aa4b2">0x0000000008000</text>
<text x="420" y="84" font-size="12" font-style="italic" fill="#ffffff">pristine</text>
<rect x="390" y="98" width="22" height="30.6" fill="#2f6fb3" stroke="#b9c2cf"/>
<text x="420" y="102" font-size="10" font-family="ui-monospace,SFMono-Regular,Menlo,Consolas,monospace" fill="#9aa4b2">0x0000000010000</text>
<text x="420" y="117.3" font-size="13" fill="#5b9bf0">PMAs <tspan fill="#9aa4b2" font-size="10">(2^12 bytes)</tspan></text>
<rect x="390" y="128.6" width="22" height="48.5565" fill="#ffffff" stroke="#b9c2cf"/>
<text x="420" y="132.6" font-size="10" font-family="ui-monospace,SFMono-Regular,Menlo,Consolas,monospace" fill="#9aa4b2">0x0000000011000</text>
<text x="420" y="156.878" font-size="12" font-style="italic" fill="#ffffff">pristine</text>
<rect x="390" y="177.157" width="22" height="30.6" fill="#2f6fb3" stroke="#b9c2cf"/>
<text x="420" y="181.157" font-size="10" font-family="ui-monospace,SFMono-Regular,Menlo,Consolas,monospace" fill="#9aa4b2">0x0000000400000</text>
<text x="420" y="196.457" font-size="13" fill="#5b9bf0">shadow uarch state <tspan fill="#9aa4b2" font-size="10">(2^12 bytes)</tspan></text>
<rect x="390" y="207.757" width="22" height="46.7949" fill="#ffffff" stroke="#b9c2cf"/>
<text x="420" y="211.757" font-size="10" font-family="ui-monospace,SFMono-Regular,Menlo,Consolas,monospace" fill="#9aa4b2">0x0000000401000</text>
<text x="420" y="235.154" font-size="12" font-style="italic" fill="#ffffff">pristine</text>
<rect x="390" y="254.551" width="22" height="46.8" fill="#2f6fb3" stroke="#b9c2cf"/>
<text x="420" y="258.551" font-size="10" font-family="ui-monospace,SFMono-Regular,Menlo,Consolas,monospace" fill="#9aa4b2">0x0000000600000</text>
<text x="420" y="281.951" font-size="13" fill="#5b9bf0">uarch RAM <tspan fill="#9aa4b2" font-size="10">(2^21 bytes)</tspan></text>
<rect x="390" y="301.351" width="22" height="64.0394" fill="#ffffff" stroke="#b9c2cf"/>
<text x="420" y="305.351" font-size="10" font-family="ui-monospace,SFMono-Regular,Menlo,Consolas,monospace" fill="#9aa4b2">0x0000000800000</text>
<text x="420" y="337.371" font-size="12" font-style="italic" fill="#ffffff">pristine</text>
<rect x="390" y="365.391" width="22" height="46.8" fill="#2f6fb3" stroke="#b9c2cf"/>
<text x="420" y="369.391" font-size="10" font-family="ui-monospace,SFMono-Regular,Menlo,Consolas,monospace" fill="#9aa4b2">0x0000060000000</text>
<text x="420" y="392.791" font-size="13" fill="#5b9bf0">CMIO rx buffer <tspan fill="#9aa4b2" font-size="10">(2^21 bytes)</tspan></text>
<rect x="390" y="412.191" width="22" height="49.6529" fill="#ffffff" stroke="#b9c2cf"/>
<text x="420" y="416.191" font-size="10" font-family="ui-monospace,SFMono-Regular,Menlo,Consolas,monospace" fill="#9aa4b2">0x0000060200000</text>
<text x="420" y="441.017" font-size="12" font-style="italic" fill="#ffffff">pristine</text>
<rect x="390" y="461.844" width="22" height="46.8" fill="#2f6fb3" stroke="#b9c2cf"/>
<text x="420" y="465.844" font-size="10" font-family="ui-monospace,SFMono-Regular,Menlo,Consolas,monospace" fill="#9aa4b2">0x0000060800000</text>
<text x="420" y="489.244" font-size="13" fill="#5b9bf0">CMIO tx buffer <tspan fill="#9aa4b2" font-size="10">(2^21 bytes)</tspan></text>
<rect x="390" y="508.644" width="22" height="61.1436" fill="#ffffff" stroke="#b9c2cf"/>
<text x="420" y="512.644" font-size="10" font-family="ui-monospace,SFMono-Regular,Menlo,Consolas,monospace" fill="#9aa4b2">0x0000060a00000</text>
<text x="420" y="543.216" font-size="12" font-style="italic" fill="#ffffff">pristine</text>
<rect x="390" y="569.787" width="22" height="45" fill="#2f6fb3" stroke="#b9c2cf"/>
<text x="420" y="573.787" font-size="10" font-family="ui-monospace,SFMono-Regular,Menlo,Consolas,monospace" fill="#9aa4b2">0x000007ff00000</text>
<text x="420" y="596.287" font-size="13" fill="#5b9bf0">DTB <tspan fill="#9aa4b2" font-size="10">(2^20 bytes)</tspan></text>
<rect x="390" y="614.787" width="22" height="55.8" fill="#2f6fb3" stroke="#b9c2cf"/>
<text x="420" y="618.787" font-size="10" font-family="ui-monospace,SFMono-Regular,Menlo,Consolas,monospace" fill="#9aa4b2">0x0000080000000</text>
<text x="420" y="646.687" font-size="13" fill="#5b9bf0">RAM <tspan fill="#9aa4b2" font-size="10">(2^26 bytes)</tspan></text>
<rect x="390" y="670.587" width="22" height="55.8" fill="#ffffff" stroke="#b9c2cf"/>
<text x="420" y="674.587" font-size="10" font-family="ui-monospace,SFMono-Regular,Menlo,Consolas,monospace" fill="#9aa4b2">0x0000084000000</text>
<text x="420" y="702.487" font-size="12" font-style="italic" fill="#ffffff">pristine</text>
<rect x="390" y="726.387" width="22" height="57.6" fill="#2f6fb3" stroke="#b9c2cf"/>
<text x="420" y="730.387" font-size="10" font-family="ui-monospace,SFMono-Regular,Menlo,Consolas,monospace" fill="#9aa4b2">0x0000088000000</text>
<text x="420" y="759.187" font-size="13" fill="#5b9bf0">flash drive 0 <tspan fill="#9aa4b2" font-size="10">(2^27 bytes)</tspan></text>
<rect x="390" y="783.987" width="22" height="50.4" fill="#2f6fb3" stroke="#b9c2cf"/>
<text x="420" y="787.987" font-size="10" font-family="ui-monospace,SFMono-Regular,Menlo,Consolas,monospace" fill="#9aa4b2">0x0000090000000</text>
<text x="420" y="813.187" font-size="13" fill="#5b9bf0">nvram 0 <tspan fill="#9aa4b2" font-size="10">(2^23 bytes)</tspan></text>
<rect x="390" y="834.387" width="22" height="124.2" fill="#ffffff" stroke="#b9c2cf"/>
<text x="420" y="838.387" font-size="10" font-family="ui-monospace,SFMono-Regular,Menlo,Consolas,monospace" fill="#9aa4b2">0x0000090800000</text>
<text x="420" y="900.487" font-size="12" font-style="italic" fill="#ffffff">pristine</text>
<text x="420" y="962.587" font-size="10" font-family="ui-monospace,SFMono-Regular,Menlo,Consolas,monospace" fill="#9aa4b2">2^64</text>
<polygon points="364,44 382,26.5 382,61.5" fill="#2f6fb3" stroke="#b9c2cf"/>
<circle cx="364" cy="44" r="3.5" fill="#2f6fb3" stroke="#b9c2cf"/>
<polygon points="364,80 382,62.5 382,97.5" fill="#ffffff" stroke="#b9c2cf"/>
<circle cx="364" cy="80" r="3.5" fill="#ffffff" stroke="#b9c2cf"/>
<polygon points="364,113.3 382,98.5 382,128.1" fill="#2f6fb3" stroke="#b9c2cf"/>
<circle cx="364" cy="113.3" r="3.5" fill="#2f6fb3" stroke="#b9c2cf"/>
<polygon points="364,138.8 382,129.1 382,148.5" fill="#ffffff" stroke="#b9c2cf"/>
<circle cx="364" cy="138.8" r="3.5" fill="#ffffff" stroke="#b9c2cf"/>
<polygon points="364,163.078 382,149.5 382,176.657" fill="#ffffff" stroke="#b9c2cf"/>
<circle cx="364" cy="163.078" r="3.5" fill="#ffffff" stroke="#b9c2cf"/>
<polygon points="364,192.457 382,177.657 382,207.257" fill="#2f6fb3" stroke="#b9c2cf"/>
<circle cx="364" cy="192.457" r="3.5" fill="#2f6fb3" stroke="#b9c2cf"/>
<polygon points="364,231.154 382,208.257 382,254.051" fill="#ffffff" stroke="#b9c2cf"/>
<circle cx="364" cy="231.154" r="3.5" fill="#ffffff" stroke="#b9c2cf"/>
<polygon points="364,277.951 382,255.051 382,300.851" fill="#2f6fb3" stroke="#b9c2cf"/>
<circle cx="364" cy="277.951" r="3.5" fill="#2f6fb3" stroke="#b9c2cf"/>
<polygon points="364,317.63 382,301.851 382,333.408" fill="#ffffff" stroke="#b9c2cf"/>
<circle cx="364" cy="317.63" r="3.5" fill="#ffffff" stroke="#b9c2cf"/>
<polygon points="364,349.649 382,334.408 382,364.891" fill="#ffffff" stroke="#b9c2cf"/>
<circle cx="364" cy="349.649" r="3.5" fill="#ffffff" stroke="#b9c2cf"/>
<polygon points="364,388.791 382,365.891 382,411.691" fill="#2f6fb3" stroke="#b9c2cf"/>
<circle cx="364" cy="388.791" r="3.5" fill="#2f6fb3" stroke="#b9c2cf"/>
<polygon points="364,437.017 382,412.691 382,461.344" fill="#ffffff" stroke="#b9c2cf"/>
<circle cx="364" cy="437.017" r="3.5" fill="#ffffff" stroke="#b9c2cf"/>
<polygon points="364,485.244 382,462.344 382,508.144" fill="#2f6fb3" stroke="#b9c2cf"/>
<circle cx="364" cy="485.244" r="3.5" fill="#2f6fb3" stroke="#b9c2cf"/>
<polygon points="364,517.441 382,509.144 382,525.738" fill="#ffffff" stroke="#b9c2cf"/>
<circle cx="364" cy="517.441" r="3.5" fill="#ffffff" stroke="#b9c2cf"/>
<polygon points="364,537.108 382,526.738 382,547.479" fill="#ffffff" stroke="#b9c2cf"/>
<circle cx="364" cy="537.108" r="3.5" fill="#ffffff" stroke="#b9c2cf"/>
<polygon points="364,558.883 382,548.479 382,569.287" fill="#ffffff" stroke="#b9c2cf"/>
<circle cx="364" cy="558.883" r="3.5" fill="#ffffff" stroke="#b9c2cf"/>
<polygon points="364,592.287 382,570.287 382,614.287" fill="#2f6fb3" stroke="#b9c2cf"/>
<circle cx="364" cy="592.287" r="3.5" fill="#2f6fb3" stroke="#b9c2cf"/>
<polygon points="364,642.687 382,615.287 382,670.087" fill="#2f6fb3" stroke="#b9c2cf"/>
<circle cx="364" cy="642.687" r="3.5" fill="#2f6fb3" stroke="#b9c2cf"/>
<polygon points="364,698.487 382,671.087 382,725.887" fill="#ffffff" stroke="#b9c2cf"/>
<circle cx="364" cy="698.487" r="3.5" fill="#ffffff" stroke="#b9c2cf"/>
<polygon points="364,755.187 382,726.887 382,783.487" fill="#2f6fb3" stroke="#b9c2cf"/>
<circle cx="364" cy="755.187" r="3.5" fill="#2f6fb3" stroke="#b9c2cf"/>
<polygon points="364,809.187 382,784.487 382,833.887" fill="#2f6fb3" stroke="#b9c2cf"/>
<circle cx="364" cy="809.187" r="3.5" fill="#2f6fb3" stroke="#b9c2cf"/>
<polygon points="364,848.554 382,834.887 382,862.22" fill="#ffffff" stroke="#b9c2cf"/>
<circle cx="364" cy="848.554" r="3.5" fill="#ffffff" stroke="#b9c2cf"/>
<polygon points="364,878.22 382,863.22 382,893.22" fill="#ffffff" stroke="#b9c2cf"/>
<circle cx="364" cy="878.22" r="3.5" fill="#ffffff" stroke="#b9c2cf"/>
<polygon points="364,926.154 382,894.22 382,958.087" fill="#ffffff" stroke="#b9c2cf"/>
<circle cx="364" cy="926.154" r="3.5" fill="#ffffff" stroke="#b9c2cf"/>
<circle cx="332" cy="62" r="3.5" fill="#8b949e" stroke="#b9c2cf"/>
<circle cx="332" cy="126.05" r="3.5" fill="#8b949e" stroke="#b9c2cf"/>
<circle cx="282" cy="94.0251" r="3.5" fill="#8b949e" stroke="#b9c2cf"/>
<circle cx="232" cy="128.552" r="3.5" fill="#8b949e" stroke="#b9c2cf"/>
<circle cx="332" cy="211.805" r="3.5" fill="#8b949e" stroke="#b9c2cf"/>
<circle cx="282" cy="244.878" r="3.5" fill="#8b949e" stroke="#b9c2cf"/>
<circle cx="182" cy="186.715" r="3.5" fill="#8b949e" stroke="#b9c2cf"/>
<circle cx="132" cy="252.172" r="3.5" fill="#8b949e" stroke="#b9c2cf"/>
<circle cx="332" cy="412.904" r="3.5" fill="#8b949e" stroke="#b9c2cf"/>
<circle cx="332" cy="501.342" r="3.5" fill="#8b949e" stroke="#b9c2cf"/>
<circle cx="282" cy="457.123" r="3.5" fill="#8b949e" stroke="#b9c2cf"/>
<circle cx="232" cy="497.116" r="3.5" fill="#8b949e" stroke="#b9c2cf"/>
<circle cx="332" cy="575.585" r="3.5" fill="#8b949e" stroke="#b9c2cf"/>
<circle cx="182" cy="536.351" r="3.5" fill="#8b949e" stroke="#b9c2cf"/>
<circle cx="132" cy="443" r="3.5" fill="#8b949e" stroke="#b9c2cf"/>
<circle cx="82" cy="347.586" r="3.5" fill="#8b949e" stroke="#b9c2cf"/>
<circle cx="332" cy="670.587" r="3.5" fill="#8b949e" stroke="#b9c2cf"/>
<circle cx="282" cy="712.887" r="3.5" fill="#8b949e" stroke="#b9c2cf"/>
<circle cx="332" cy="828.871" r="3.5" fill="#8b949e" stroke="#b9c2cf"/>
<circle cx="232" cy="770.879" r="3.5" fill="#8b949e" stroke="#b9c2cf"/>
<circle cx="182" cy="824.55" r="3.5" fill="#8b949e" stroke="#b9c2cf"/>
<circle cx="32" cy="586.068" r="3.5" fill="#8b949e" stroke="#b9c2cf"/>
<circle cx="-18" cy="756.111" r="3.5" fill="#8b949e" stroke="#b9c2cf"/>
</g>
</svg>
